<svg width="64" height="64" viewBox="0 0 64 64" fill="none" xmlns="http://www.w3.org/2000/svg">
<path fill-rule="evenodd" clip-rule="evenodd" d="M41.8918 25.1412C40.6043 23.8356 38.9099 23.0227 37.0973 22.8411C35.2846 22.6596 33.466 23.1205 31.9511 24.1454C30.4363 25.1704 29.3191 26.6958 28.7899 28.4619C28.2606 30.228 28.3522 32.1254 29.0488 33.8308C29.7455 35.5361 31.0042 36.944 32.6104 37.8143C34.2166 38.6847 36.071 38.9637 37.8575 38.6039C39.644 38.2441 41.2522 37.2677 42.4078 35.841C43.5635 34.4144 44.1952 32.6258 44.1953 30.7801C44.1967 29.7328 43.994 28.6955 43.5987 27.7278C43.2034 26.7601 42.6233 25.8811 41.8918 25.1412ZM36.3248 21.0217C38.5529 21.0199 40.7127 21.801 42.4361 23.232C44.1595 24.6629 45.34 26.6551 45.7763 28.8691C46.2126 31.0831 45.8778 33.3819 44.829 35.3738C43.7801 37.3658 42.0821 38.9275 40.0243 39.793C37.9664 40.6586 35.6761 40.7742 33.5435 40.1204C31.4109 39.4665 29.568 38.0836 28.3288 36.2073C27.0897 34.3309 26.531 32.0772 26.7479 29.8302C26.9648 27.5832 27.9438 25.4819 29.5183 23.8844C30.4108 22.9765 31.4716 22.2562 32.6397 21.7649C33.8078 21.2736 35.0601 21.0211 36.3248 21.0217ZM36.3248 31.6697C35.627 31.6692 34.9524 31.4158 34.4228 30.9552C33.8933 30.4947 33.5437 29.8574 33.4374 29.1586C33.331 28.4597 33.4749 27.7454 33.8429 27.1446C34.211 26.5438 34.7789 26.0962 35.4442 25.8828V25.1901C35.4442 24.954 35.5368 24.7276 35.7015 24.5606C35.8663 24.3937 36.0898 24.2999 36.3228 24.2999C36.5558 24.2999 36.7792 24.3937 36.944 24.5606C37.1088 24.7276 37.2013 24.954 37.2013 25.1901V25.8828C37.7942 26.0725 38.312 26.4487 38.6796 26.9568C39.0472 27.4649 39.2455 28.0785 39.2458 28.7085C39.2458 28.9446 39.1532 29.171 38.9884 29.338C38.8237 29.5049 38.6002 29.5987 38.3672 29.5987C38.1342 29.5987 37.9107 29.5049 37.746 29.338C37.5812 29.171 37.4887 28.9446 37.4887 28.7085C37.4888 28.4747 37.4205 28.2461 37.2924 28.0517C37.1642 27.8573 36.9821 27.7058 36.7689 27.6163C36.5558 27.5269 36.3212 27.5035 36.095 27.5492C35.8687 27.5948 35.6609 27.7075 35.4979 27.8729C35.3348 28.0383 35.2239 28.249 35.1791 28.4783C35.1343 28.7077 35.1576 28.9453 35.2462 29.1612C35.3347 29.3771 35.4845 29.5615 35.6765 29.6911C35.8685 29.8207 36.0941 29.8896 36.3248 29.8892C37.0229 29.8897 37.6977 30.1432 38.2273 30.604C38.757 31.0647 39.1064 31.7023 39.2126 32.4014C39.3187 33.1005 39.1745 33.815 38.806 34.4157C38.4375 35.0165 37.869 35.4638 37.2034 35.6768V36.3702C37.2034 36.6063 37.1108 36.8327 36.9461 36.9996C36.7813 37.1666 36.5578 37.2604 36.3248 37.2604C36.0918 37.2604 35.8684 37.1666 35.7036 36.9996C35.5388 36.8327 35.4463 36.6063 35.4463 36.3702V35.6775C34.8534 35.4877 34.3356 35.1115 33.968 34.6034C33.6004 34.0953 33.4021 33.4818 33.4018 32.8518C33.4018 32.6157 33.4944 32.3892 33.6592 32.2223C33.8239 32.0553 34.0474 31.9615 34.2804 31.9615C34.5134 31.9615 34.7369 32.0553 34.9016 32.2223C35.0664 32.3892 35.1589 32.6157 35.1589 32.8518C35.1589 33.0854 35.2273 33.3138 35.3554 33.5081C35.4835 33.7024 35.6656 33.8538 35.8787 33.9432C36.0917 34.0327 36.3261 34.0561 36.5523 34.0105C36.7785 33.9649 36.9862 33.8524 37.1492 33.6872C37.3123 33.5219 37.4233 33.3114 37.4683 33.0823C37.5133 32.8531 37.4902 32.6155 37.402 32.3997C37.3137 32.1838 37.1643 31.9993 36.9726 31.8695C36.7808 31.7397 36.5554 31.6697 36.3248 31.6697ZM49.2254 51.6628L53.4625 44.501L47.9782 41.2619L37.2978 44.4193L37.2413 44.4396C37.0973 44.4935 36.9653 44.576 36.8532 44.6822C36.741 44.7884 36.6509 44.9163 36.5881 45.0582C36.5267 45.1907 36.4861 45.332 36.4675 45.4772C36.4675 45.4988 36.4675 45.5204 36.4606 45.5421C36.4464 45.7137 36.4635 45.8864 36.5109 46.0518L36.5357 46.1216C36.5915 46.2827 36.6784 46.431 36.7912 46.5578C36.9041 46.6846 37.0407 46.7875 37.1931 46.8603C37.531 47.0195 37.9156 47.0444 38.2707 46.9302L42.9667 45.4799C43.0775 45.443 43.1945 45.4289 43.3107 45.4384C43.427 45.4479 43.5402 45.4809 43.6437 45.5354C43.7472 45.5899 43.8389 45.6648 43.9134 45.7558C43.988 45.8467 44.0438 45.9518 44.0776 46.0649C44.1115 46.178 44.1227 46.2968 44.1106 46.4144C44.0985 46.5319 44.0633 46.6459 44.0071 46.7494C43.9509 46.853 43.8748 46.9442 43.7834 47.0175C43.6919 47.0909 43.5869 47.145 43.4745 47.1766L38.7793 48.6276C38.0049 48.8697 37.169 48.8092 36.4365 48.4579C36.076 48.2857 35.7528 48.0428 35.4856 47.7431C35.2184 47.4435 35.0125 47.0931 34.8799 46.7123C34.8675 46.676 34.8502 46.6202 34.8282 46.544C34.777 46.366 34.7415 46.1838 34.7221 45.9994L26.2535 42.2611C25.7994 42.0229 25.2944 41.9016 24.7831 41.9078C24.6845 41.9131 24.5893 41.9454 24.5074 42.0014C24.4499 42.0479 24.4053 42.1088 24.3779 42.178C24.3012 42.3888 24.2775 42.6155 24.309 42.8378C24.3386 43.1227 24.7831 43.4586 25.1173 43.7106L25.1993 43.7728C25.2186 43.7874 25.2372 43.8021 25.2551 43.8182C27.3602 45.4178 28.9581 46.653 30.3245 47.7094C34.0916 50.6217 36.1484 52.2109 37.5955 52.8595C39.0859 53.5277 40.0341 53.0781 42.1226 52.0915C42.5932 51.868 42.1502 52.0754 42.5843 51.8715C43.1789 51.5922 43.4931 51.4386 43.7626 51.3081C45.0029 50.7055 45.581 50.4248 46.268 50.4381C46.9636 50.5079 47.6317 50.7493 48.2139 51.1412C48.493 51.2878 48.8223 51.461 49.2241 51.66L49.2254 51.6628ZM56.3496 42.3875C56.1917 42.2911 56.0165 42.2272 55.8341 42.1996C55.6517 42.1719 55.4657 42.1811 55.2868 42.2265C55.1079 42.2719 54.9396 42.3527 54.7916 42.4642C54.6436 42.5757 54.5188 42.7157 54.4244 42.8763L54.3651 42.9754L48.8306 39.707C48.6349 39.5891 48.417 39.5141 48.1909 39.4866C47.9648 39.4592 47.7356 39.4801 47.5179 39.5478L36.8072 42.715C36.7383 42.7359 36.6852 42.752 36.6549 42.7631C35.9541 43.0178 35.3775 43.5369 35.0453 44.212L26.9515 40.6419C26.2228 40.2777 25.4139 40.1094 24.6025 40.1532C24.1858 40.1895 23.7873 40.3423 23.4511 40.5944C23.1524 40.8247 22.9184 41.1302 22.7724 41.4805C22.484 42.1439 22.458 42.8941 22.6997 43.5764C22.9414 44.2586 23.4324 44.8208 24.0713 45.1469L24.1533 45.209C24.1719 45.223 24.1905 45.2356 24.2098 45.2481C26.0447 46.6446 27.7805 47.9845 29.2647 49.1317C33.1428 52.1299 35.2596 53.7658 36.8926 54.4976C39.1045 55.4891 40.28 54.9319 42.8682 53.7065C43.0439 53.6227 42.5725 53.8461 43.3229 53.497C43.6502 53.3427 44.1188 53.1151 44.5219 52.9196C45.0539 52.5915 45.6361 52.3555 46.2446 52.2213C46.6606 52.3222 47.0567 52.4938 47.416 52.729C47.673 52.8644 47.9713 53.0215 48.3241 53.1982L48.3124 53.2184C48.2168 53.3787 48.1534 53.5566 48.1259 53.7418C48.0984 53.927 48.1073 54.1159 48.1521 54.2976C48.1969 54.4794 48.2768 54.6503 48.3871 54.8006C48.4974 54.9509 48.6359 55.0776 48.7948 55.1735L54.76 58.7973C54.918 58.8934 55.0932 58.9571 55.2755 58.9845C55.4579 59.012 55.6438 59.0028 55.8226 58.9574C56.0014 58.912 56.1696 58.8313 56.3177 58.72C56.4657 58.6086 56.5906 58.4688 56.6852 58.3085L62.7999 47.9747C62.8948 47.8146 62.9576 47.637 62.9847 47.4523C63.0119 47.2675 63.0028 47.0791 62.958 46.8979C62.9132 46.7167 62.8335 46.5463 62.7237 46.3963C62.6138 46.2463 62.4758 46.1198 62.3176 46.0239L56.3496 42.3875ZM61.1166 47.3526L55.3581 57.0831L49.9896 53.8224L50.2962 53.3029C50.3109 53.281 50.3247 53.2578 50.3376 53.2331L55.4008 44.6756C55.4098 44.6609 55.4194 44.6463 55.4277 44.6309L55.4401 44.6086L55.746 44.0912L61.1145 47.3526H61.1166ZM10.8606 25.8241L14.3493 32.9411L19.9996 30.0086L23.1383 19.186C23.1383 19.1784 23.1452 19.1581 23.1528 19.1267C23.1856 18.9744 23.1881 18.8169 23.1602 18.6636C23.1323 18.5102 23.0745 18.3641 22.9901 18.2337C22.8294 17.9759 22.5909 17.7775 22.31 17.6681L22.2639 17.6513C22.245 17.6444 22.2257 17.6381 22.206 17.6325C22.1943 17.6325 22.1708 17.6227 22.1371 17.6143C21.9726 17.5749 21.802 17.569 21.6352 17.5969C21.4684 17.6248 21.3087 17.686 21.1655 17.777C20.852 17.9791 20.6244 18.2927 20.5274 18.6561L19.2003 23.4452C19.1374 23.6721 18.9882 23.8643 18.7855 23.9797C18.5827 24.0951 18.343 24.1241 18.1192 24.0604C17.8953 23.9967 17.7056 23.8455 17.5917 23.64C17.4779 23.4346 17.4492 23.1917 17.5121 22.9649L18.8379 18.1785C19.0549 17.3886 19.5552 16.7093 20.2408 16.2737C20.7638 15.9418 21.3746 15.78 21.991 15.8101L24.5502 7.92012C24.7579 7.40508 24.7822 6.83287 24.6191 6.30162C24.5607 6.14024 24.4579 5.99921 24.3228 5.89525C24.2226 5.82065 24.1025 5.77853 23.9782 5.77446C23.7934 5.77858 23.6169 5.85341 23.4842 5.98393C23.0708 6.35678 21.1779 9.77461 19.2733 13.485C17.7908 16.2723 16.4589 19.1393 15.2837 22.0732C15.2754 22.097 15.2658 22.1207 15.2561 22.143C14.1536 25.1147 13.4411 25.3346 10.8599 25.8311L10.8606 25.8241ZM14.359 36.6383L8.31728 39.6798C7.9833 39.8467 7.5976 39.8728 7.24473 39.7521C6.89185 39.6314 6.60059 39.3739 6.43476 39.036L1.14484 28.2442C0.980312 27.9057 0.954864 27.515 1.07407 27.1576C1.19328 26.8002 1.44743 26.5052 1.78085 26.3373L8.00927 23.2016C8.34335 23.0349 8.729 23.0092 9.08174 23.1301C9.43447 23.2511 9.72551 23.5087 9.89109 23.8467L10.0503 24.1714L10.2901 24.126C12.3028 23.7406 12.8265 23.6373 13.6189 21.5097L13.6299 21.4748C14.8314 18.463 16.1955 15.5204 17.7161 12.6604C19.6999 8.795 21.754 5.16002 22.3183 4.65171C22.7808 4.22409 23.3867 3.99114 24.0127 4.00026C24.4933 4.01065 24.9594 4.16921 25.3488 4.45481C25.7547 4.75501 26.0671 5.16699 26.2487 5.64179C26.5696 6.55851 26.5588 7.56088 26.2184 8.47032L23.6447 16.4015C23.9739 16.6415 24.2546 16.9432 24.4716 17.2903C24.6807 17.619 24.8228 17.9868 24.8895 18.3719C24.9563 18.7571 24.9463 19.1519 24.8602 19.5331C24.8513 19.5729 24.8368 19.6252 24.8189 19.6895L21.6713 30.5358C21.6087 30.7582 21.5013 30.9651 21.3558 31.1434C21.2102 31.3216 21.0298 31.4673 20.8258 31.5712L15.128 34.5289L15.274 34.8264V34.8801C15.3624 35.2001 15.338 35.5413 15.205 35.845C15.0719 36.1487 14.8385 36.3959 14.545 36.544L14.359 36.6383ZM7.85147 37.9307L2.87025 27.7722L8.47507 24.9506L8.7507 25.5092C8.7662 25.5477 8.78439 25.585 8.80513 25.6209L13.4556 35.1071L7.85147 37.9307Z" fill="black" stroke="black" stroke-width="0.5"/>
</svg>
