<svg width="64" height="64" viewBox="0 0 64 64" fill="none" xmlns="http://www.w3.org/2000/svg">
<path d="M12.4728 43.0568C13.0122 43.5962 13.7432 43.9014 14.5074 43.899C15.2692 43.899 16.0026 43.5962 16.542 43.0568C17.0814 42.5174 17.3842 41.7863 17.3842 41.0222C17.3842 40.2604 17.0814 39.527 16.542 38.9876L9.94588 32.3939L16.542 25.7953C17.2612 25.0667 17.5404 24.0115 17.273 23.025C17.0057 22.0361 16.2345 21.2648 15.2455 20.9974C14.2566 20.7301 13.2014 21.0093 12.4751 21.7261L3.84222 30.359C3.30281 30.8984 3 31.6295 3 32.3936C3 33.1554 3.30282 33.8889 3.84222 34.4282L12.4728 43.0568Z" fill="black"/>
<path d="M46.1398 41.0273C46.1374 41.7938 46.4402 42.5296 46.982 43.0713C47.5238 43.6131 48.2595 43.9159 49.026 43.9135C49.7926 43.9112 50.526 43.6036 51.063 43.0571L59.6935 34.4266C60.2329 33.8872 60.5357 33.1561 60.5357 32.3944C60.5357 31.6326 60.2329 30.8991 59.6935 30.3597L51.063 21.7292C50.3344 21.01 49.2792 20.7333 48.2927 21.0006C47.3038 21.2679 46.5325 22.0392 46.2651 23.0281C45.9977 24.0171 46.277 25.0722 46.9962 25.7985L53.5923 32.3946L46.9937 38.9907C46.4496 39.5278 46.1422 40.2631 46.1398 41.0273Z" fill="black"/>
<path d="M26.1887 46.7662C27.2131 46.7047 28.1287 46.1038 28.5876 45.1859L40.0949 22.1712C40.438 21.4899 40.4971 20.6973 40.2558 19.971C40.0145 19.2447 39.4964 18.6462 38.8127 18.3031C38.129 17.9624 37.3364 17.9057 36.6125 18.1493C35.8885 18.3907 35.29 18.9135 34.9493 19.5972L23.442 42.6143C22.9854 43.5346 23.0516 44.6252 23.6194 45.4817C24.1825 46.3381 25.1619 46.8278 26.1887 46.7662Z" fill="black"/>
</svg>
