<svg width="64" height="64" viewBox="0 0 64 64" fill="none" xmlns="http://www.w3.org/2000/svg">
<path d="M21.4712 2.18457H39.8877C40.3913 2.18457 40.8476 2.39183 41.178 2.72564L58.6254 20.3866C58.981 20.7473 59.1592 21.22 59.1592 21.6927L59.1599 46.1505C59.1599 48.5846 58.1771 50.7983 56.5936 52.4011C55.3845 53.6251 53.824 54.4941 52.0833 54.8366C51.7442 56.5995 50.8863 58.1783 49.6772 59.4022L49.563 59.5084C47.9867 61.048 45.8465 61.9999 43.5022 61.9999H14.5548C12.1487 61.9999 9.96319 61.0051 8.37975 59.4022C6.7963 57.7994 5.81348 55.5871 5.81348 53.1516V18.034C5.81348 15.6058 6.79846 13.3928 8.38334 11.787C9.5896 10.5602 11.1486 9.6904 12.8901 9.34787C13.2292 7.58504 14.087 6.00621 15.2962 4.78227L15.4104 4.67609C16.9867 3.13653 19.1269 2.18457 21.4712 2.18457ZM46.6978 30.0553C47.7051 30.0553 48.5227 30.8829 48.5227 31.9024C48.5227 32.922 47.7051 33.7496 46.6978 33.7496H25.1913C24.184 33.7496 23.3664 32.922 23.3664 31.9024C23.3664 30.8829 24.184 30.0553 25.1913 30.0553H46.6978ZM46.6978 40.2671C47.7051 40.2671 48.5227 41.0947 48.5227 42.1143C48.5227 43.1339 47.7051 43.9615 46.6978 43.9615H25.1913C24.184 43.9615 23.3664 43.1339 23.3664 42.1143C23.3664 41.0947 24.184 40.2671 25.1913 40.2671H46.6978ZM48.2525 54.9988H21.4712C19.0709 54.9988 16.8854 54.0032 15.3027 52.4018L15.2955 52.3946C13.7135 50.7925 12.7299 48.5802 12.7299 46.1505V13.2255C12.0618 13.488 11.4597 13.8902 10.9604 14.3956C10.0343 15.325 9.46316 16.6137 9.46316 18.034V53.1516C9.46316 54.5668 10.0372 55.8555 10.9604 56.79C11.8836 57.7245 13.1567 58.3056 14.5548 58.3056H43.5022C44.8651 58.3056 46.1051 57.7601 47.0168 56.8765L47.0966 56.79C47.5959 56.2846 47.9932 55.6751 48.2525 54.9988ZM55.5102 23.5399H46.8041C44.4038 23.5399 42.2183 22.5443 40.6356 20.943L40.6284 20.9357C39.0464 19.3336 38.0629 17.1213 38.0629 14.6916V5.87894H21.4712C20.1083 5.87894 18.8683 6.42437 17.9566 7.30797L17.8768 7.39451C16.9536 8.32901 16.3796 9.61768 16.3796 11.0329V46.1505C16.3796 47.5686 16.9515 48.8587 17.8725 49.7932C18.7957 50.7256 20.0702 51.3044 21.4712 51.3044H50.4186C51.816 51.3044 53.0898 50.7234 54.013 49.7889C54.9362 48.8544 55.5102 47.565 55.5102 46.1505V23.5399ZM41.7126 8.49118V14.6916C41.7126 16.1097 42.2844 17.3999 43.2055 18.3344C44.1287 19.2667 45.4032 19.8456 46.8041 19.8456H52.9296L41.7126 8.49118Z" fill="black"/>
</svg>
