<svg width="64" height="64" viewBox="0 0 64 64" fill="none" xmlns="http://www.w3.org/2000/svg">
<path fill-rule="evenodd" clip-rule="evenodd" d="M31.9973 3C40.0071 3 47.2564 6.24441 52.5033 11.4913C57.7501 16.7436 61 23.9929 61 31.9973C61 40.0071 57.7501 47.2564 52.5033 52.5033C47.2564 57.7501 40.0071 61 31.9973 61C23.9929 61 16.7436 57.7501 11.4913 52.5033C6.24441 47.2564 3 40.0071 3 31.9973C3 23.9929 6.24441 16.7381 11.4913 11.4913C16.7381 6.24441 23.9929 3 31.9973 3ZM49.3026 14.6919C44.8764 10.2657 38.7542 7.52467 31.9973 7.52467C25.2404 7.52467 19.1236 10.2657 14.6919 14.6919C10.2657 19.1236 7.52467 25.2404 7.52467 31.9973C7.52467 38.7542 10.2657 44.8764 14.6919 49.3026C19.1236 53.7288 25.2404 56.4699 31.9973 56.4699C38.7542 56.4699 44.8764 53.7288 49.3026 49.3026C53.7288 44.8764 56.4699 38.7542 56.4699 31.9973C56.4699 25.2404 53.7288 19.1236 49.3026 14.6919ZM31.7456 21.3941C30.4982 21.3941 29.486 20.3819 29.486 19.1345C29.486 17.8816 30.4982 16.8694 31.7456 16.8694H32.2489C33.5018 16.8694 34.514 17.8816 34.514 19.1345C34.514 20.3819 33.5018 21.3941 32.2489 21.3941H31.7456ZM29.7158 26.6246C29.7158 25.3771 30.728 24.365 31.9809 24.365C33.2283 24.365 34.2404 25.3771 34.2404 26.6246V44.8655C34.2404 46.1129 33.2283 47.1306 31.9809 47.1306C30.728 47.1306 29.7158 46.1129 29.7158 44.8655V26.6246Z" fill="black"/>
</svg>
