<svg width="64" height="64" viewBox="0 0 64 64" fill="none" xmlns="http://www.w3.org/2000/svg">
<path d="M7.41865 5C5.00208 5 3 7.00272 3 9.41865V36.0164V40.511C3 42.927 5.00208 44.9297 7.41865 44.9297H24.0431V50.8708H16.0809C15.6325 50.869 15.2018 51.0455 14.8834 51.3614C14.5651 51.6772 14.3853 52.1066 14.3835 52.555V58.0205C14.3853 58.4689 14.5651 58.8983 14.8834 59.2141C15.2018 59.53 15.6325 59.7065 16.0809 59.7048H47.421C47.8677 59.7038 48.2959 59.5262 48.6121 59.2106C48.9283 58.8951 49.1068 58.4672 49.1085 58.0205V52.555C49.1067 52.1083 48.9283 51.6804 48.6121 51.3649C48.2959 51.0493 47.8677 50.8717 47.421 50.8708H39.4588V44.9297H56.0833C58.4998 44.9297 60.492 42.927 60.492 40.511V13.9099V9.41865C60.492 7.00272 58.4998 5 56.0833 5H7.41865ZM7.41865 8.38168H56.0833C56.6812 8.38168 57.107 8.81394 57.107 9.41865V13.9099V40.511C57.107 41.1158 56.6811 41.5447 56.0833 41.5447H7.41865C6.82075 41.5447 6.38169 41.1157 6.38169 40.511V36.0164V9.41865C6.38169 9.38094 6.38507 9.34273 6.38846 9.30636C6.43882 8.76067 6.85812 8.38168 7.41865 8.38168ZM21.3846 15.4093C20.9393 15.4361 20.5227 15.6379 20.2255 15.9707L13.3102 23.847C13.039 24.1556 12.8895 24.5524 12.8895 24.9632C12.8895 25.374 13.039 25.7708 13.3102 26.0794L20.2255 33.9557C20.5217 34.2917 20.9392 34.4965 21.3862 34.525C21.8332 34.5535 22.2733 34.4034 22.6098 34.1077C22.9473 33.8129 23.1538 33.3961 23.1842 32.949C23.2145 32.502 23.0661 32.0611 22.7717 31.7234L16.8306 24.9567L22.7717 18.2065C23.0661 17.8688 23.2145 17.4279 23.1842 16.9808C23.1538 16.5338 22.9473 16.117 22.6098 15.8221C22.2722 15.5277 21.8316 15.3791 21.3846 15.4093ZM42.1041 15.4093C41.6582 15.38 41.2189 15.5284 40.8822 15.822C40.5467 16.1187 40.3426 16.5364 40.3147 16.9835C40.2868 17.4305 40.4375 17.8703 40.7336 18.2064L46.6746 24.9566L40.7336 31.7232C40.4375 32.0593 40.2868 32.4991 40.3147 32.9462C40.3426 33.3932 40.5467 33.8109 40.8822 34.1076C41.2187 34.4033 41.6588 34.5533 42.1058 34.5248C42.5528 34.4963 42.9703 34.2916 43.2665 33.9556L50.1917 26.0793C50.4629 25.7707 50.6125 25.3739 50.6125 24.9631C50.6125 24.5522 50.4629 24.1554 50.1917 23.8468L43.2665 15.9706C42.9685 15.6371 42.5506 15.4353 42.1041 15.4093ZM36.2026 15.8154C35.8898 15.7973 35.5781 15.8664 35.3023 16.0151C35.0264 16.1638 34.7974 16.3862 34.6406 16.6576L25.9288 31.5614C25.7043 31.9487 25.6426 32.4092 25.7571 32.8419C25.8716 33.2746 26.1531 33.6443 26.5397 33.8698C26.9258 34.0951 27.3854 34.1584 27.818 34.0457C28.2506 33.9331 28.6209 33.6538 28.8481 33.2688L37.5632 18.3682C37.6769 18.1765 37.7515 17.9642 37.7827 17.7435C37.814 17.5229 37.8014 17.2982 37.7455 17.0824C37.6897 16.8667 37.5917 16.6641 37.4573 16.4863C37.3228 16.3086 37.1546 16.1591 36.9622 16.0466C36.7309 15.9104 36.4706 15.8311 36.2026 15.8154ZM27.4281 44.9297H36.0771V50.8707H27.4281V44.9297ZM17.7652 54.2524H25.7306H37.7614H45.7235V56.3231H17.7652V54.2524Z" fill="black"/>
</svg>
