<svg width="36" height="36" viewBox="0 0 36 36" fill="none" xmlns="http://www.w3.org/2000/svg">
<path d="M4.68 6.48C3.68589 6.48 2.88 7.28586 2.88 8.28C2.88 9.27414 3.68589 10.08 4.68 10.08H31.32C32.3141 10.08 33.12 9.27414 33.12 8.28C33.12 7.28586 32.3141 6.48 31.32 6.48H4.68ZM4.68 16.2C3.68589 16.2 2.88 17.0058 2.88 18C2.88 18.9941 3.68589 19.8 4.68 19.8H31.32C32.3141 19.8 33.12 18.9941 33.12 18C33.12 17.0058 32.3141 16.2 31.32 16.2H4.68ZM4.68 25.92C3.68589 25.92 2.88 26.7259 2.88 27.72C2.88 28.7141 3.68589 29.52 4.68 29.52H31.32C32.3141 29.52 33.12 28.7141 33.12 27.72C33.12 26.7259 32.3141 25.92 31.32 25.92H4.68Z" fill="white"/>
</svg>
