<svg width="64" height="64" viewBox="0 0 64 64" fill="none" xmlns="http://www.w3.org/2000/svg">
<path fill-rule="evenodd" clip-rule="evenodd" d="M32 3C15.9939 3 3 15.9939 3 32C3 48.0061 15.9939 61 32 61C48.0061 61 61 48.0061 61 32C61 15.9939 48.0061 3 32 3ZM32 6.86667C45.8717 6.86667 57.1333 18.1283 57.1333 32C57.1333 45.8717 45.8717 57.1333 32 57.1333C18.1283 57.1333 6.86667 45.8717 6.86667 32C6.86667 18.1283 18.1283 6.86667 32 6.86667ZM15.5667 27.1667C18.2347 27.1667 20.4 29.332 20.4 32C20.4 34.668 18.2347 36.8333 15.5667 36.8333C12.8987 36.8333 10.7333 34.668 10.7333 32C10.7333 29.332 12.8987 27.1667 15.5667 27.1667ZM32 27.1667C34.668 27.1667 36.8333 29.332 36.8333 32C36.8333 34.668 34.668 36.8333 32 36.8333C29.332 36.8333 27.1667 34.668 27.1667 32C27.1667 29.332 29.332 27.1667 32 27.1667ZM48.4333 27.1667C51.1013 27.1667 53.2667 29.332 53.2667 32C53.2667 34.668 51.1013 36.8333 48.4333 36.8333C45.7653 36.8333 43.6 34.668 43.6 32C43.6 29.332 45.7653 27.1667 48.4333 27.1667Z" fill="black"/>
</svg>
