<svg width="25" height="25" viewBox="0 0 25 25" fill="none" xmlns="http://www.w3.org/2000/svg">
<path d="M12.5 12.5C11.3541 12.5 10.3732 12.092 9.55725 11.276C8.74128 10.4601 8.33329 9.47917 8.33329 8.33333C8.33329 7.1875 8.74128 6.2066 9.55725 5.39062C10.3732 4.57465 11.3541 4.16667 12.5 4.16667C13.6458 4.16667 14.6267 4.57465 15.4427 5.39062C16.2586 6.2066 16.6666 7.1875 16.6666 8.33333C16.6666 9.47917 16.2586 10.4601 15.4427 11.276C14.6267 12.092 13.6458 12.5 12.5 12.5ZM6.24996 20.8333C5.67704 20.8333 5.18676 20.6295 4.77913 20.2219C4.37079 19.8135 4.16663 19.3229 4.16663 18.75V17.9167C4.16663 17.3264 4.31871 16.7837 4.62288 16.2885C4.92635 15.7941 5.32982 15.4167 5.83329 15.1562C6.90968 14.6181 8.00343 14.2142 9.11454 13.9448C10.2257 13.676 11.3541 13.5417 12.5 13.5417C13.6458 13.5417 14.7743 13.676 15.8854 13.9448C16.9965 14.2142 18.0902 14.6181 19.1666 15.1562C19.6701 15.4167 20.0736 15.7941 20.377 16.2885C20.6812 16.7837 20.8333 17.3264 20.8333 17.9167V18.75C20.8333 19.3229 20.6295 19.8135 20.2218 20.2219C19.8135 20.6295 19.3229 20.8333 18.75 20.8333H6.24996Z" fill="#EDF6F9"/>
</svg>
