<svg width="64" height="64" viewBox="0 0 64 64" fill="none" xmlns="http://www.w3.org/2000/svg">
<path d="M36.5652 4.00001C30.5948 3.99492 24.8458 6.27745 20.5035 10.3769C16.1611 14.4763 13.5484 20.0818 13.2052 26.0443C12.8618 32.0088 14.813 37.8767 18.6567 42.4497L3.59719 57.5243C2.80094 58.3183 2.80094 59.6084 3.59719 60.4023C4.3909 61.1988 5.68058 61.1988 6.47428 60.4049L21.5312 45.3257C27.3769 50.247 35.2576 52.0028 42.6399 50.0282C50.0221 48.0536 55.975 42.6007 58.5896 35.4168C61.2021 28.2361 60.1439 20.2282 55.7583 13.9706C51.3702 7.71333 44.2069 3.99076 36.5648 4.00053L36.5652 4.00001ZM36.5652 46.7497C31.4369 46.7497 26.5195 44.7115 22.8948 41.0854C19.2698 37.4593 17.2322 32.5406 17.2322 27.4107C17.2322 22.2807 19.2698 17.3618 22.8948 13.736C26.5197 10.1099 31.4369 8.07167 36.5652 8.07167C41.6936 8.07167 46.611 10.1099 50.2357 13.736C53.8606 17.3621 55.8982 22.2807 55.8982 27.4107C55.8932 32.5381 53.853 37.4543 50.2281 41.0776C46.6056 44.7036 41.691 46.7446 36.5652 46.7497ZM38.6003 19.2674V35.553C38.6003 36.6778 37.6896 37.5887 36.5652 37.5887C35.4408 37.5887 34.5302 36.6778 34.5302 35.553V19.2674C34.5302 18.1427 35.4408 17.2317 36.5652 17.2317C37.6896 17.2317 38.6003 18.1427 38.6003 19.2674ZM30.46 23.3388V35.553C30.46 36.6778 29.5494 37.5887 28.425 37.5887C27.3006 37.5887 26.3899 36.6778 26.3899 35.553V23.3388C26.3899 22.2141 27.3006 21.3031 28.425 21.3031C29.5494 21.3031 30.46 22.2141 30.46 23.3388ZM46.7406 27.4102V35.553C46.7406 36.6778 45.8299 37.5887 44.7055 37.5887C43.5811 37.5887 42.6704 36.6778 42.6704 35.553V27.4102C42.6704 26.2855 43.5811 25.3745 44.7055 25.3745C45.8299 25.3745 46.7406 26.2855 46.7406 27.4102Z" fill="black"/>
</svg>
