<svg width="64" height="64" viewBox="0 0 64 64" fill="none" xmlns="http://www.w3.org/2000/svg">
<path d="M1 18.4157C1 18.8735 1.18187 19.3112 1.49845 19.6411C1.82514 19.9676 2.25624 20.1494 2.7244 20.1494H8.21753V47.1072H5.63095C4.68115 47.1072 3.90656 47.8814 3.90656 48.8308V52.83H2.77829C1.8285 52.83 1.0539 53.6043 1.0539 54.5536V60.2764C1.0539 61.2258 1.82853 62 2.77829 62L60.2487 61.9966C61.1985 61.9966 61.9731 61.2224 61.9731 60.273V54.5502C61.9731 53.6009 61.1985 52.8266 60.2487 52.8266H59.1204V48.8274C59.1204 47.878 58.3458 47.1038 57.396 47.1038H54.5939V20.146H60.2655C61.2153 20.146 61.9899 19.3785 61.9899 18.4224V12.8376C61.9899 12.8376 62 12.8376 62 12.8275C62 12.7164 61.9899 12.612 61.9663 12.5077C61.9663 12.4908 61.9562 12.4639 61.9495 12.4471C61.9326 12.3595 61.9057 12.2821 61.872 12.2047C61.8552 12.171 61.8383 12.1374 61.8215 12.1003C61.7946 12.0397 61.7609 11.9791 61.7272 11.9185C61.7003 11.8849 61.6767 11.8512 61.6497 11.8142C61.6161 11.7637 61.5723 11.7098 61.5285 11.6661C61.5117 11.6492 61.5016 11.6324 61.4847 11.6156C61.4679 11.5987 61.451 11.5886 61.4342 11.5718C61.3904 11.528 61.3399 11.4843 61.286 11.4506C61.2523 11.4237 61.2186 11.4001 61.1749 11.3732C61.1243 11.3395 61.0704 11.3126 61.0098 11.2857C60.966 11.2688 60.9223 11.2419 60.8818 11.2251C60.865 11.2251 60.8549 11.2082 60.8381 11.2082L32.0822 1.09594C31.7117 0.968019 31.3075 0.968019 30.9371 1.09594L2.16135 11.2048C2.16135 11.2048 2.12768 11.2216 2.11757 11.2216C2.06705 11.2385 2.02327 11.2654 1.97948 11.2822C1.92896 11.3091 1.87508 11.3327 1.82456 11.3697C1.78077 11.3967 1.74709 11.4202 1.71341 11.4472C1.66289 11.4808 1.6191 11.5246 1.57532 11.5583C1.54164 11.5919 1.50796 11.6189 1.48102 11.6525C1.43724 11.6963 1.40356 11.7468 1.36988 11.7906C1.34293 11.8242 1.31936 11.8579 1.29242 11.9016C1.25874 11.9521 1.23179 12.006 1.20485 12.0666C1.18801 12.1104 1.16107 12.144 1.14423 12.1878C1.11728 12.2551 1.10044 12.3258 1.0836 12.3931C1.0836 12.4268 1.06677 12.4537 1.05666 12.4874C1.03982 12.5918 1.02298 12.7028 1.02298 12.8139V18.3988L1 18.4157ZM11.6559 20.1393H18.9407V47.097H11.6559V20.1393ZM29.668 20.1393V47.097H22.3831V20.1393H29.668ZM40.4014 20.1393V47.097H33.1166V20.1393H40.4014ZM58.5075 58.5331H4.49878V56.2574H58.5239V58.5331H58.5075ZM55.6548 52.8102H7.35213V50.5346H55.6686V52.8102H55.6548ZM51.1283 47.0874H43.8435V20.1296H51.1283V47.0874ZM58.5344 16.6824L4.45498 16.6858V14.5481H58.5473V16.6858L58.5344 16.6824ZM31.4968 4.53974L50.1616 11.0975L12.845 11.1008L31.5098 4.54311L31.4968 4.53974Z" fill="black"/>
</svg>
