<svg width="64" height="64" viewBox="0 0 64 64" fill="none" xmlns="http://www.w3.org/2000/svg">
<g clip-path="url(#clip0_3_313)">
<path d="M64 25.12C64.0013 24.2512 63.7726 23.3975 63.337 22.6457C62.9014 21.8939 62.2745 21.2709 61.52 20.84L34.56 4.84003C33.783 4.3867 32.8996 4.14783 32 4.14783C31.1004 4.14783 30.217 4.3867 29.44 4.84003L2.43999 20.84C1.69387 21.2827 1.07579 21.912 0.646495 22.6659C0.217197 23.4198 -0.00854492 24.2725 -0.00854492 25.14C-0.00854492 26.0076 0.217197 26.8602 0.646495 27.6142C1.07579 28.3681 1.69387 28.9973 2.43999 29.44L10.12 33.92V45.16C10.1246 46.0385 10.3552 46.901 10.7895 47.6645C11.2238 48.4281 11.8473 49.0671 12.6 49.52L29.6 59.32C30.359 59.7403 31.2124 59.9607 32.08 59.9607C32.9476 59.9607 33.801 59.7403 34.56 59.32L51.56 49.52C52.3127 49.0671 52.9361 48.4281 53.3705 47.6645C53.8048 46.901 54.0354 46.0385 54.04 45.16V33.8L59 30.88V41.76H64V25.12ZM49.08 45.12L32 54.96L15.12 45.16V36.88L29.44 45.4C30.2196 45.8455 31.102 46.0798 32 46.0798C32.8979 46.0798 33.7803 45.8455 34.56 45.4L49.04 36.76L49.08 45.12ZM32 41.08L4.99998 25.08L32 9.04003L59 25.04L32 41.08Z" fill="#242423"/>
</g>
<defs>
<clipPath id="clip0_3_313">
<rect width="64" height="64" fill="white"/>
</clipPath>
</defs>
</svg>
