<svg width="64" height="64" viewBox="0 0 64 64" fill="none" xmlns="http://www.w3.org/2000/svg">
<path d="M18.6667 37.3333C17.5026 37.335 16.353 37.5908 15.298 38.0827C14.243 38.5746 13.308 39.2908 12.5584 40.1813C11.8087 41.0718 11.2625 42.1152 10.9577 43.2386C10.6529 44.3621 10.5969 45.5385 10.7937 46.6858C10.9905 47.8331 11.4353 48.9236 12.0971 49.8812C12.7588 50.8389 13.6216 51.6406 14.6251 52.2304C15.6287 52.8202 16.7489 53.1839 17.9075 53.2961C19.0661 53.4083 20.2353 53.2663 21.3333 52.88" stroke="#242423" stroke-width="5" stroke-linecap="round" stroke-linejoin="round"/>
<path d="M11.3707 41.6133C9.77484 40.845 8.39543 39.6915 7.35694 38.2567C6.31845 36.822 5.65357 35.1513 5.42229 33.3953C5.19102 31.6393 5.40064 29.8534 6.03224 28.1987C6.66383 26.544 7.69752 25.0726 9.04 23.9173M9.12 23.7013C8.24545 22.3927 7.86214 20.8168 8.03792 19.2526C8.21371 17.6885 8.93726 16.237 10.0805 15.155C11.2237 14.0731 12.7128 13.4306 14.2843 13.3412C15.8557 13.2519 17.4081 13.7214 18.6667 14.6667M19.3013 14.84C18.8759 13.9361 18.6591 12.9482 18.6669 11.9492C18.6746 10.9503 18.9068 9.96583 19.3462 9.06868C19.7856 8.17153 20.4211 7.38459 21.2055 6.76605C21.99 6.1475 22.9034 5.71316 23.8783 5.49513C24.8532 5.2771 25.8646 5.28095 26.8379 5.5064C27.8111 5.73185 28.7212 6.17313 29.5009 6.79763C30.2806 7.42213 30.91 8.21388 31.3426 9.11436C31.7752 10.0148 31.9998 11.001 32 12V53.3333C32 54.7478 31.4381 56.1044 30.4379 57.1046C29.4377 58.1048 28.0812 58.6667 26.6667 58.6667C25.2522 58.6667 23.8956 58.1048 22.8954 57.1046C21.8952 56.1044 21.3333 54.7478 21.3333 53.3333M32 18.6667C32 20.7884 32.8429 22.8232 34.3431 24.3235C35.8434 25.8238 37.8783 26.6667 40 26.6667M45.3333 37.3333C46.4974 37.3351 47.647 37.5908 48.702 38.0827C49.757 38.5746 50.692 39.2908 51.4416 40.1813C52.1913 41.0718 52.7375 42.1152 53.0423 43.2386C53.3471 44.3621 53.4031 45.5385 53.2063 46.6858C53.0095 47.8331 52.5647 48.9236 51.9029 49.8812C51.2412 50.8389 50.3784 51.6406 49.3749 52.2304C48.3713 52.8202 47.2511 53.1839 46.0925 53.2961C44.9339 53.4083 43.7647 53.2663 42.6667 52.88" stroke="#242423" stroke-width="5" stroke-linecap="round" stroke-linejoin="round"/>
<path d="M52.6293 41.6133C54.2252 40.845 55.6046 39.6915 56.6431 38.2567C57.6816 36.822 58.3464 35.1513 58.5777 33.3953C58.809 31.6393 58.5994 29.8534 57.9678 28.1987C57.3362 26.544 56.3025 25.0726 54.96 23.9173M54.88 23.7013C55.7546 22.3927 56.1379 20.8168 55.9621 19.2526C55.7863 17.6885 55.0627 16.237 53.9195 15.155C52.7763 14.0731 51.2872 13.4306 49.7157 13.3412C48.1443 13.2519 46.5919 13.7214 45.3333 14.6667M32 12C32.0002 11.001 32.2248 10.0148 32.6574 9.11436C33.09 8.21388 33.7194 7.42213 34.4991 6.79763C35.2788 6.17313 36.1889 5.73185 37.1621 5.5064C38.1354 5.28095 39.1468 5.2771 40.1217 5.49513C41.0966 5.71316 42.01 6.1475 42.7945 6.76605C43.5789 7.38459 44.2144 8.17153 44.6538 9.06868C45.0932 9.96583 45.3254 10.9503 45.3331 11.9492C45.3409 12.9482 45.1241 13.9361 44.6987 14.84M42.6667 53.3333C42.6667 54.7478 42.1048 56.1044 41.1046 57.1046C40.1044 58.1048 38.7478 58.6667 37.3333 58.6667C35.9188 58.6667 34.5623 58.1048 33.5621 57.1046C32.5619 56.1044 32 54.7478 32 53.3333" stroke="#242423" stroke-width="5" stroke-linecap="round" stroke-linejoin="round"/>
</svg>
