<svg width="64" height="64" viewBox="0 0 64 64" fill="none" xmlns="http://www.w3.org/2000/svg">
<path d="M21.3334 10.6666H19.2006C16.2136 10.6666 14.719 10.6666 13.5782 11.248C12.5746 11.7593 11.7593 12.5746 11.248 13.5781C10.6667 14.719 10.6667 16.2136 10.6667 19.2005V21.3333M21.3334 10.6666H42.6667M21.3334 10.6666V5.33331M10.6667 21.3333V44.8005C10.6667 47.7874 10.6667 49.2802 11.248 50.421C11.7593 51.4245 12.5746 52.2413 13.5782 52.7525C14.7179 53.3333 16.2107 53.3333 19.1918 53.3333H44.8083C47.7894 53.3333 49.28 53.3333 50.4198 52.7525C51.4232 52.2413 52.2414 51.4245 52.7526 50.421C53.3334 49.2813 53.3334 47.7906 53.3334 44.8096V21.3333M10.6667 21.3333H53.3334M42.6667 10.6666H44.8006C47.7875 10.6666 49.279 10.6666 50.4198 11.248C51.4232 11.7593 52.2414 12.5746 52.7526 13.5781C53.3334 14.7178 53.3334 16.2106 53.3334 19.1917V21.3333M42.6667 10.6666V5.33331M42.6667 42.6666H42.672V42.672H42.6667V42.6666ZM32 42.6666H32.0054V42.672H32V42.6666ZM21.3334 42.6666H21.3387L21.3386 42.672H21.3334V42.6666ZM42.672 32V32.0053H42.6667V32H42.672ZM32 32H32.0054V32.0053H32V32ZM21.3334 32H21.3387L21.3386 32.0053H21.3334V32Z" stroke="#242423" stroke-width="5" stroke-linecap="round" stroke-linejoin="round"/>
</svg>
