<svg width="64" height="64" viewBox="0 0 64 64" fill="none" xmlns="http://www.w3.org/2000/svg">
<path fill-rule="evenodd" clip-rule="evenodd" d="M5.95873 54.8149C7.06984 57.3837 8.95131 58.6666 11.615 58.6666H52.3851C55.0458 58.6666 56.9332 57.3837 58.0414 54.8149C59.1495 52.2461 58.7851 49.9083 56.9451 47.8017L42.2667 29.0377V11.2603H47.2089C47.5894 11.2716 47.968 11.2027 48.3202 11.0583C48.6724 10.9138 48.9903 10.697 49.2533 10.4218C49.5224 10.1392 49.7325 9.80573 49.8714 9.44099C50.0103 9.07625 50.0751 8.6875 50.0622 8.29743C50.0751 7.90736 50.0103 7.51861 49.8714 7.15387C49.7325 6.78913 49.5224 6.4557 49.2533 6.17304C48.9903 5.89786 48.6724 5.68102 48.3202 5.53657C47.968 5.39212 47.5894 5.32329 47.2089 5.33454H16.7913C16.4107 5.3231 16.0321 5.39185 15.6798 5.53631C15.3276 5.68077 15.0097 5.89771 14.7468 6.17304C14.4782 6.45594 14.2687 6.78948 14.1303 7.15421C13.9919 7.51894 13.9275 7.90757 13.9409 8.29743C13.9409 9.15371 14.2105 9.86184 14.7498 10.4218C15.0127 10.6972 15.3306 10.9141 15.6828 11.0586C16.035 11.203 16.4137 11.2718 16.7942 11.2603H21.7364V29.0377L7.05206 47.8017C5.21503 49.9083 4.85059 52.2461 5.95873 54.8149ZM19.1646 41.71H44.8355L36.563 31.2095V11.2603H27.4371V31.2095L19.1646 41.71Z" fill="#242423"/>
</svg>
