<svg width="64" height="64" viewBox="0 0 64 64" fill="none" xmlns="http://www.w3.org/2000/svg">
<path d="M56 10H8C6.93913 10 5.92172 10.4214 5.17157 11.1716C4.42143 11.9217 4 12.9391 4 14V48C4 49.0609 4.42143 50.0783 5.17157 50.8284C5.92172 51.5786 6.93913 52 8 52H36V58C36.001 58.3618 36.1001 58.7166 36.2867 59.0265C36.4734 59.3365 36.7406 59.59 37.06 59.76C37.3727 59.9206 37.7223 59.9959 38.0734 59.9783C38.4245 59.9608 38.7648 59.851 39.06 59.66L44 56.4L48.9 59.66C49.2008 59.8581 49.5495 59.9713 49.9093 59.9876C50.2691 60.004 50.6266 59.9228 50.9442 59.7528C51.2617 59.5828 51.5274 59.3302 51.7132 59.0217C51.8991 58.7131 51.9981 58.3602 52 58V52H56C57.0609 52 58.0783 51.5786 58.8284 50.8284C59.5786 50.0783 60 49.0609 60 48V14C60 12.9391 59.5786 11.9217 58.8284 11.1716C58.0783 10.4214 57.0609 10 56 10ZM45.18 43.88C43.917 44.1339 42.6059 43.9745 41.4405 43.4254C40.2751 42.8764 39.3174 41.9669 38.709 40.8313C38.1005 39.6958 37.8738 38.3946 38.0621 37.1202C38.2505 35.8459 38.8441 34.6659 39.755 33.755C40.6659 32.8441 41.8459 32.2505 43.1202 32.0621C44.3946 31.8738 45.6958 32.1005 46.8313 32.709C47.9669 33.3174 48.8764 34.2751 49.4254 35.4405C49.9745 36.6059 50.1339 37.917 49.88 39.18C49.647 40.3394 49.0765 41.4041 48.2403 42.2403C47.4041 43.0765 46.3394 43.647 45.18 43.88ZM48 54.26L45.1 52.26C44.7734 52.0449 44.391 51.9303 44 51.9303C43.609 51.9303 43.2266 52.0449 42.9 52.26L40 54.26V47.16C41.2617 47.7106 42.6234 47.9949 44 47.9949C45.3766 47.9949 46.7383 47.7106 48 47.16V54.26ZM56 48H52V44C52.8781 42.8466 53.4911 41.5138 53.7953 40.0965C54.0995 38.6791 54.0875 37.2121 53.76 35.8C53.2233 33.3947 51.8174 31.2723 49.812 29.84C47.8065 28.4076 45.3428 27.7663 42.8935 28.039C40.4442 28.3117 38.1818 29.4792 36.5405 31.3176C34.8992 33.1559 33.9945 35.5356 34 38C33.9897 40.1654 34.6926 42.2739 36 44V48H8V14H56V48Z" fill="#242423"/>
<path d="M14 24H50C50.5304 24 51.0391 23.7893 51.4142 23.4142C51.7893 23.0391 52 22.5304 52 22C52 21.4696 51.7893 20.9609 51.4142 20.5858C51.0391 20.2107 50.5304 20 50 20H14C13.4696 20 12.9609 20.2107 12.5858 20.5858C12.2107 20.9609 12 21.4696 12 22C12 22.5304 12.2107 23.0391 12.5858 23.4142C12.9609 23.7893 13.4696 24 14 24Z" fill="#242423"/>
<path d="M14 32H30C30.5304 32 31.0391 31.7893 31.4142 31.4142C31.7893 31.0391 32 30.5304 32 30C32 29.4696 31.7893 28.9609 31.4142 28.5858C31.0391 28.2107 30.5304 28 30 28H14C13.4696 28 12.9609 28.2107 12.5858 28.5858C12.2107 28.9609 12 29.4696 12 30C12 30.5304 12.2107 31.0391 12.5858 31.4142C12.9609 31.7893 13.4696 32 14 32Z" fill="#242423"/>
<path d="M14 40H30C30.5304 40 31.0391 39.7893 31.4142 39.4142C31.7893 39.0391 32 38.5304 32 38C32 37.4696 31.7893 36.9609 31.4142 36.5858C31.0391 36.2107 30.5304 36 30 36H14C13.4696 36 12.9609 36.2107 12.5858 36.5858C12.2107 36.9609 12 37.4696 12 38C12 38.5304 12.2107 39.0391 12.5858 39.4142C12.9609 39.7893 13.4696 40 14 40Z" fill="#242423"/>
</svg>
